# xmcd
#
# Track frame offsets: 
#        150
#        15673
#        28534
#        43631
#        62495
#        81908
#        112143
#        139928
#        154789
#        169315
#        181683
#        191518
#        205890
#        219249
#        233201
#        247576
#        260936
#        275044
#        289259
#        297845
#        314008
#        336311
#
# Disc length: 4521 seconds
#
# Revision: 0
# Processed by: cddbd v1.5.2PL0 Copyright (c) Steve Scherf et al.
# Submitted via: ExactAudioCopy v1.0b1
#
DISCID=4f11a716
DTITLE=Mississippi Fred McDowell - Downhome Blues 1959, Disc 1
DYEAR=2011
DGENRE=Blues
TTITLE0=When You Get Home, Write Me a Few Little Lines
TTITLE1=Drop Down Mama
TTITLE2=Shake 'Em on Down
TTITLE3=Fred McDowells Blues
TTITLE4=Goin' Down to the River
TTITLE5=You Gonna Be Sorry
TTITLE6=You Done Tol' Everybody
TTITLE7=Woke Up This Morning with My Mind on Jesus
TTITLE8=Soon One Mornin'
TTITLE9=Keep Your Lamps Trimmed and Burning
TTITLE10=Wished I Was in Heaven Sitting Down
TTITLE11=Germany Blues
TTITLE12=Good Morning Little Schoolgirl
TTITLE13=Freight Train Blues
TTITLE14=Keep Your Lamps Trimmed and Burning
TTITLE15=Been Drinkin' Water Out of a Hollow Log
TTITLE16=I Want Jesus to Walk with Me
TTITLE17=61 Highway Blues
TTITLE18=Lord Have Mercy
TTITLE19=Worried Mind
TTITLE20=What's the Matter Now
TTITLE21=Keep Your Lamps Trimmed and Burning
EXTD=
EXTT0=
EXTT1=
EXTT2=
EXTT3=
EXTT4=
EXTT5=
EXTT6=
EXTT7=
EXTT8=
EXTT9=
EXTT10=
EXTT11=
EXTT12=
EXTT13=
EXTT14=
EXTT15=
EXTT16=
EXTT17=
EXTT18=
EXTT19=
EXTT20=
EXTT21=
PLAYORDER=
